<svg width="219" height="255" viewBox="0 0 219 255" fill="none" xmlns="http://www.w3.org/2000/svg">
<path d="M219 231.794C219.003 232.583 218.795 233.358 218.396 234.041C217.998 234.724 217.424 235.291 216.733 235.683C193.837 248.447 167.983 255.103 141.706 254.999C63.4456 254.999 0 197.917 0 127.499C0 57.0815 63.4456 0 141.706 0C169.261 0 194.974 7.07621 216.733 19.3162C217.426 19.7093 218.001 20.2777 218.4 20.9633C218.798 21.6488 219.005 22.4268 219 23.2176C219 26.5581 215.483 28.7766 212.353 27.5526C198.068 21.9506 182.836 19.0905 167.471 19.1249C103.445 19.1249 51.5294 67.6512 51.5294 127.499C51.5294 187.348 103.445 235.874 167.471 235.874C182.835 235.912 198.067 233.057 212.353 227.459C213.079 227.167 213.865 227.055 214.645 227.131C215.425 227.207 216.174 227.47 216.828 227.896C217.482 228.323 218.022 228.901 218.4 229.58C218.778 230.259 218.984 231.019 219 231.794Z" fill="#D4A85E"/>
<path d="M218 201.619C218.002 202.176 217.857 202.723 217.578 203.205C217.3 203.688 216.899 204.087 216.416 204.364C200.421 213.374 182.358 218.073 164 217.999C109.325 217.999 65 177.706 65 128C65 78.2928 109.325 38 164 38C183.251 38 201.215 42.995 216.416 51.6349C216.9 51.9124 217.302 52.3137 217.581 52.7976C217.859 53.2815 218.004 53.8307 218 54.3889C218 56.7469 215.543 58.3129 213.356 57.4489C203.376 53.4945 192.735 51.4756 182 51.4999C137.27 51.4999 101 85.7538 101 128C101 170.245 137.27 204.499 182 204.499C192.734 204.526 203.375 202.511 213.356 198.559C213.863 198.353 214.413 198.274 214.957 198.328C215.502 198.381 216.026 198.567 216.483 198.868C216.94 199.169 217.317 199.577 217.581 200.056C217.845 200.536 217.989 201.072 218 201.619Z" fill="#D4A85E"/>
</svg>
